<svg xmlns="http://www.w3.org/2000/svg" width="375" viewBox="0 0 375 375" height="375" version="1.0"><defs><clipPath id="a"><path d="M 185 34.386719 L 317 34.386719 L 317 150 L 185 150 Z M 185 34.386719"/></clipPath><clipPath id="b"><path d="M 48 34.386719 L 180 34.386719 L 180 150 L 48 150 Z M 48 34.386719"/></clipPath><clipPath id="c"><path d="M 185 155 L 316 155 L 316 270.636719 L 185 270.636719 Z M 185 155"/></clipPath><clipPath id="d"><path d="M 337.507812 295.507812 L 355.617188 295.507812 L 355.617188 313.824219 L 337.507812 313.824219 Z M 337.507812 295.507812"/></clipPath><clipPath id="e"><path d="M 307.238281 304.898438 L 338.503906 304.898438 L 338.503906 330.945312 L 307.238281 330.945312 Z M 307.238281 304.898438"/></clipPath></defs><g clip-path="url(#a)"><path fill="#FFDE59" d="M 242.117188 74.824219 C 254.871094 92.042969 219.488281 93.71875 228.972656 111.792969 C 237.96875 128.949219 250.957031 106.683594 261.003906 106.605469 C 274.65625 106.527344 299.445312 116.570312 313.855469 121.988281 C 313.796875 122.554688 313.738281 123.121094 313.699219 123.6875 C 311.148438 151.390625 251.074219 149.597656 228.464844 148.566406 C 181.769531 146.421875 183.890625 105.4375 186.890625 64.082031 C 186.890625 27.816406 250.585938 34.40625 272.28125 35.597656 C 311.75 37.722656 318.179688 54.140625 316.054688 94.03125 C 300.691406 90.929688 278.980469 87.207031 273.117188 77.027344 C 265.777344 64.257812 267.546875 49.828125 247.316406 51.972656 C 232.28125 53.574219 235.691406 66.148438 242.117188 74.824219 Z M 242.117188 74.824219"/></g><g clip-path="url(#b)"><path fill="#008037" d="M 176.53125 123.6875 C 174.386719 146.90625 131.9375 149.402344 104.910156 148.972656 C 110.984375 147.84375 116.804688 146.226562 122.160156 144.3125 C 157.679688 131.699219 158.363281 108.984375 141.421875 98.496094 C 121.96875 86.40625 123.097656 78.394531 117.351562 72.40625 C 116.164062 71.179688 114.820312 70.125 113.398438 69.230469 C 113.984375 65.253906 115.597656 61.859375 120.3125 60.867188 C 130.789062 58.605469 142.53125 81.316406 150.921875 63.828125 C 158.75 47.527344 135.558594 42.128906 124.691406 46.496094 C 118.109375 49.167969 106.582031 57.628906 106.097656 66.304688 C 93.417969 63.378906 76.964844 68.410156 67.109375 73.265625 C 59.59375 77.007812 53.148438 82.878906 48.4375 89.78125 C 48.554688 81.472656 49.097656 72.777344 49.761719 64.082031 C 49.761719 27.816406 113.457031 34.40625 135.148438 35.597656 C 183.269531 38.191406 182.214844 62.035156 176.53125 123.6875 Z M 114.507812 103.351562 C 114.003906 103.3125 113.457031 103.292969 112.910156 103.273438 C 92.894531 102.6875 74.863281 129.164062 102.824219 131.25 C 125.570312 132.949219 141.03125 105.203125 114.507812 103.351562 Z M 114.507812 103.351562"/></g><path fill="#5E17EB" d="M 135.128906 157.203125 C 113.457031 156.03125 49.742188 149.421875 49.742188 185.707031 C 47.558594 215.695312 45.867188 245.484375 62.90625 260.402344 C 60.839844 241.78125 97.507812 210.429688 116.320312 216.726562 C 130.417969 221.445312 136.648438 254.960938 135.074219 269.371094 C 155.792969 267.03125 175.109375 260.753906 176.53125 245.292969 C 182.234375 183.640625 183.269531 159.796875 135.128906 157.203125 Z M 71.570312 226.847656 C 60.625 219.945312 69.136719 191.285156 81.96875 196 C 93.867188 200.390625 84.285156 234.859375 71.570312 226.847656 Z M 99.066406 209.746094 C 86.136719 201.246094 97.003906 167.183594 112.210938 173.132812 C 126.347656 178.667969 114.0625 219.632812 99.066406 209.746094 Z M 130.554688 218.636719 C 118.207031 209.320312 131.253906 176.035156 146.035156 182.957031 C 159.785156 189.371094 144.90625 229.480469 130.554688 218.636719 Z M 138.832031 247.066406 C 130.28125 237.355469 146.5625 212.261719 157.523438 220.433594 C 167.710938 227.996094 148.761719 258.355469 138.832031 247.066406 Z M 138.832031 247.066406"/><g clip-path="url(#c)"><path fill="#ED1E49" d="M 315.335938 187.773438 C 314.632812 187.226562 313.875 186.78125 313.132812 186.351562 C 310.679688 185.003906 307.953125 184.148438 304.839844 183.933594 C 301.390625 183.699219 297.964844 183.796875 294.519531 184.167969 C 287.527344 176.894531 274.421875 165.800781 268.753906 164.183594 C 265.269531 175.433594 262.171875 185.160156 261.375 196.410156 C 256.507812 199.375 251.890625 202.652344 247.664062 206.0625 C 235.125 216.144531 227.921875 233.632812 235.4375 248.859375 C 240.597656 259.289062 253 265.878906 265.308594 270.015625 C 251.09375 271.066406 237.074219 270.558594 228.464844 270.171875 C 181.769531 268.023438 183.890625 227.042969 186.890625 185.6875 C 186.890625 149.421875 250.585938 156.011719 272.28125 157.203125 C 300.847656 158.742188 312.101562 167.75 315.335938 187.773438 Z M 267.390625 224.253906 C 263.050781 230.609375 275.21875 249.96875 279.992188 253.753906 C 285.949219 258.453125 311.421875 247.105469 311.128906 241.507812 C 310.523438 229.304688 271.558594 218.152344 267.390625 224.253906 Z M 267.390625 224.253906"/></g><path fill="#FFF" d="M 120.410156 112.378906 C 117.097656 114.230469 111.140625 113.273438 113.554688 109.394531 C 116.4375 104.792969 126.484375 108.945312 120.410156 112.378906 Z M 296.660156 235.914062 C 293.332031 237.511719 297.4375 241.15625 299.210938 242.035156 C 300.710938 242.777344 304.742188 243.90625 305.988281 242.171875 C 308.480469 238.738281 299.328125 234.605469 296.660156 235.914062 Z M 296.660156 235.914062"/><g fill="#38B6FF"><g><g><path d="M 9.476562 0 L 10.542969 0 C 13.800781 0 15.578125 -1.777344 15.578125 -5.035156 C 15.519531 -7.460938 15.519531 -9.890625 15.519531 -12.320312 L 17.710938 -12.320312 C 29.496094 -12.320312 36.839844 -18.417969 36.839844 -28.132812 C 36.839844 -37.195312 31.6875 -41.042969 19.664062 -41.042969 L 9.476562 -41.042969 C 6.21875 -41.042969 4.441406 -39.269531 4.441406 -36.011719 C 4.5 -30.859375 4.558594 -25.703125 4.558594 -20.550781 C 4.558594 -15.339844 4.5 -10.1875 4.441406 -5.035156 C 4.441406 -1.777344 6.21875 0 9.476562 0 Z M 15.519531 -20.730469 C 15.519531 -26.59375 15.519531 -29.730469 15.578125 -32.871094 L 18.417969 -32.871094 C 23.335938 -32.871094 25.410156 -31.332031 25.410156 -27.660156 C 25.410156 -22.742188 23.097656 -20.730469 17.53125 -20.730469 Z M 15.519531 -20.730469" transform="translate(25.074 325.917)"/></g></g></g><g fill="#38B6FF"><g><g><path d="M 15.519531 -7.878906 L 15.519531 -16.347656 C 18.003906 -16.289062 20.492188 -16.289062 22.863281 -16.226562 C 26.121094 -16.226562 27.894531 -17.648438 27.894531 -20.253906 C 27.894531 -22.800781 26.121094 -24.222656 22.863281 -24.222656 C 20.492188 -24.164062 18.003906 -24.164062 15.519531 -24.105469 L 15.519531 -33.167969 C 18.773438 -33.109375 22.09375 -33.109375 25.230469 -33.050781 C 28.488281 -33.050781 30.265625 -34.46875 30.265625 -37.078125 C 30.265625 -39.625 28.488281 -41.042969 25.230469 -41.042969 L 9.476562 -41.042969 C 6.21875 -41.042969 4.441406 -39.269531 4.5 -36.011719 C 4.5 -30.859375 4.558594 -25.703125 4.558594 -20.550781 C 4.558594 -15.398438 4.5 -10.246094 4.5 -5.035156 C 4.441406 -1.777344 6.21875 0 9.476562 0 L 25.824219 0 C 29.082031 0 30.859375 -1.421875 30.859375 -4.027344 C 30.859375 -6.574219 29.082031 -7.996094 25.824219 -7.996094 C 22.507812 -7.9375 19.011719 -7.9375 15.519531 -7.878906 Z M 15.519531 -7.878906" transform="translate(64.282 325.917)"/></g></g></g><g fill="#38B6FF"><g><g><path d="M 33.226562 -37.078125 C 33.226562 -39.683594 31.449219 -41.042969 28.191406 -41.042969 L 6.515625 -41.042969 C 3.257812 -41.042969 1.480469 -39.625 1.480469 -37.078125 C 1.480469 -34.53125 3.257812 -33.050781 6.574219 -33.050781 C 8.351562 -33.109375 10.070312 -33.109375 11.726562 -33.109375 C 11.726562 -28.960938 11.785156 -24.757812 11.785156 -20.550781 C 11.785156 -15.339844 11.726562 -10.1875 11.667969 -5.035156 C 11.667969 -1.777344 13.445312 0 16.703125 0 L 17.769531 0 C 21.027344 0 22.800781 -1.777344 22.742188 -5.035156 C 22.742188 -10.246094 22.742188 -15.339844 22.742188 -20.550781 L 22.742188 -33.109375 C 24.519531 -33.109375 26.238281 -33.109375 28.132812 -33.050781 C 31.449219 -33.050781 33.226562 -34.53125 33.226562 -37.078125 Z M 33.226562 -37.078125" transform="translate(97.745 325.917)"/></g></g></g><g fill="#38B6FF"><g><g><path d="M 31.390625 -41.042969 C 28.25 -41.042969 26.652344 -39.207031 26.890625 -35.832031 C 27.304688 -30.265625 27.601562 -24.519531 27.777344 -18.0625 L 27.660156 -18.0625 L 18.417969 -37.3125 C 17.175781 -39.917969 15.339844 -41.042969 12.496094 -41.042969 L 9.476562 -41.042969 C 6.21875 -41.042969 4.441406 -39.269531 4.5 -36.011719 C 4.558594 -25.644531 4.558594 -15.398438 4.5 -5.035156 C 4.441406 -1.777344 6.160156 0 9.238281 0 C 12.320312 0 13.917969 -1.835938 13.742188 -5.210938 C 13.265625 -12.320312 12.972656 -19.070312 12.792969 -27.480469 L 12.910156 -27.480469 L 24.34375 -3.730469 C 25.585938 -1.125 27.421875 0 30.265625 0 L 31.152344 0 C 34.410156 0 36.1875 -1.777344 36.128906 -5.035156 C 36.070312 -15.398438 36.070312 -25.644531 36.128906 -36.011719 C 36.1875 -39.269531 34.53125 -41.042969 31.390625 -41.042969 Z M 31.390625 -41.042969" transform="translate(147.259 325.917)"/></g></g></g><g fill="#38B6FF"><g><g><path d="M 20.375 0.59375 C 31.984375 0.59375 37.726562 -6.457031 37.726562 -20.550781 C 37.726562 -34.589844 31.984375 -41.636719 20.375 -41.636719 C 8.765625 -41.636719 2.960938 -34.589844 2.960938 -20.550781 C 2.960938 -6.457031 8.765625 0.59375 20.375 0.59375 Z M 20.375 -7.402344 C 15.695312 -7.402344 14.273438 -10.484375 14.273438 -20.550781 C 14.273438 -30.5625 15.695312 -33.640625 20.375 -33.640625 C 25.054688 -33.640625 26.414062 -30.5625 26.414062 -20.550781 C 26.414062 -10.484375 25.054688 -7.402344 20.375 -7.402344 Z M 20.375 -7.402344" transform="translate(187.888 325.917)"/></g></g></g><g fill="#38B6FF"><g><g><path d="M 42.523438 -35.597656 C 42.347656 -15.164062 41.164062 -10.070312 37.789062 -10.070312 C 34.765625 -10.070312 33.40625 -15.164062 33.226562 -35.597656 C 33.226562 -39.148438 31.449219 -41.042969 28.191406 -41.042969 L 27.421875 -41.042969 C 24.164062 -41.042969 22.386719 -39.148438 22.386719 -35.597656 C 22.445312 -15.164062 22.625 -10.070312 17.886719 -10.070312 C 14.808594 -10.070312 13.445312 -15.164062 13.265625 -35.597656 C 13.265625 -39.148438 11.488281 -41.042969 8.234375 -41.042969 L 7.402344 -41.042969 C 4.144531 -41.042969 2.367188 -39.148438 2.429688 -35.714844 C 2.84375 -10.304688 6.871094 0.59375 15.753906 0.59375 C 21.261719 0.59375 25.410156 -3.140625 27.363281 -9.773438 C 28.902344 -3.140625 32.21875 0.59375 37.667969 0.59375 C 47.5 0.59375 51.410156 -10.246094 52.296875 -35.65625 C 52.417969 -39.148438 50.640625 -41.042969 47.5 -41.042969 C 44.300781 -41.042969 42.523438 -39.148438 42.523438 -35.597656 Z M 42.523438 -35.597656" transform="translate(228.636 325.917)"/></g></g></g><path fill="#38B6FF" d="M 312.007812 282.800781 C 323.886719 281.144531 324.847656 302.324219 313.855469 301.8125 C 305.019531 301.398438 301.683594 284.242188 312.007812 282.800781" fill-rule="evenodd"/><path fill="#38B6FF" d="M 331.101562 282.800781 C 344.183594 279.957031 342.65625 303.097656 330.484375 301.8125 C 320.851562 300.792969 322.726562 284.621094 331.101562 282.800781" fill-rule="evenodd"/><path fill="#38B6FF" d="M 307.695312 308.25 C 303.042969 318.363281 288.867188 311.21875 290.449219 301.199219 C 292.121094 290.644531 311.078125 296.023438 307.695312 308.25" fill-rule="evenodd"/><g clip-path="url(#d)"><path fill="#38B6FF" d="M 346.191406 295.679688 C 349.25 295.089844 353.078125 296.171875 354.503906 298.746094 C 358.445312 305.84375 351.183594 314.519531 344.035156 313.769531 C 340.109375 313.359375 337.839844 310.03125 337.566406 307.023438 C 336.984375 300.585938 341.601562 296.5625 346.191406 295.679688" fill-rule="evenodd"/></g><g clip-path="url(#e)"><path fill="#38B6FF" d="M 319.707031 305.183594 C 330.496094 303.332031 340.402344 311.074219 338.183594 324.195312 C 337.722656 326.910156 335.375 330.75 332.023438 330.9375 C 329.320312 331.09375 326.15625 328.46875 322.785156 328.488281 C 318.601562 328.507812 315.308594 332.199219 311.390625 330.328125 C 308.101562 328.753906 306.773438 322.386719 307.386719 317.753906 C 308.273438 311.078125 313.203125 306.300781 319.707031 305.183594" fill-rule="evenodd"/></g></svg>